<?xml version="1.0" encoding="iso-8859-1"?>
<!-- Generator: Adobe Illustrator 19.0.0, SVG Export Plug-In . SVG Version: 6.00 Build 0)  -->
<svg version="1.1" id="Layer_1" xmlns="http://www.w3.org/2000/svg" xmlns:xlink="http://www.w3.org/1999/xlink" x="0px" y="0px"
	 viewBox="0 0 512 512" style="enable-background:new 0 0 512 512;" xml:space="preserve">
<path style="fill:#748993;" d="M256,0C114.615,0,0,114.616,0,256c0,122.793,86.455,225.395,201.814,250.254l300.792-319.21
	C472.501,79.153,373.494,0,256,0z"/>
<path style="fill:#414D53;" d="M512,256c0-23.891-3.285-47.014-9.406-68.953L389.565,74.017l-14.391,30.131l-30.131-30.131
	l-14.391,30.131l-30.131-30.131l-16.955,69.743L235.26,95.453l-57.173,170.564l-22.261,194.226l45.992,45.992
	C219.285,510,237.408,512,256,512C397.384,512,512,397.384,512,256z"/>
<g>
	<rect x="311.652" y="259.306" style="fill:#AEE6FF;" width="44.522" height="200.938"/>
	<polygon style="fill:#AEE6FF;" points="300.522,188.104 278.261,165.843 278.261,74.017 300.522,74.017 	"/>
	<rect x="322.783" y="74.017" style="fill:#AEE6FF;" width="22.261" height="114.087"/>
	<polygon style="fill:#AEE6FF;" points="389.565,165.843 367.304,188.104 367.304,74.017 389.565,74.017 	"/>
</g>
<path style="fill:#74C8EE;" d="M389.565,188.104v33.391c0,30.731-24.921,55.652-55.652,55.652l-22.261-89.043H389.565z"/>
<rect x="278.261" y="165.843" style="fill:#D1F1FF;" width="111.304" height="22.261"/>
<g>
	<path style="fill:#AEE6FF;" d="M333.913,188.104v89.043c-30.731,0-55.652-24.921-55.652-55.652v-33.391H333.913z"/>
	<rect x="155.826" y="248.175" style="fill:#AEE6FF;" width="44.522" height="212.068"/>
	<path style="fill:#AEE6FF;" d="M178.087,62.887l-22.261,101.565l22.261,101.565c43.03,0,77.913-45.472,77.913-101.565
		S221.117,62.887,178.087,62.887z"/>
</g>
<path style="fill:#D1F1FF;" d="M100.174,164.452c0,56.093,34.883,101.565,77.913,101.565V62.887
	C135.057,62.887,100.174,108.359,100.174,164.452z"/>
<path style="fill:#74C8EE;" d="M178.087,85.148l-22.261,79.304l22.261,79.304c30.167,0,55.652-36.317,55.652-79.304
	S208.254,85.148,178.087,85.148z"/>
<path style="fill:#AEE6FF;" d="M122.435,164.452c0,42.987,25.485,79.304,55.652,79.304V85.148
	C147.92,85.148,122.435,121.465,122.435,164.452z"/>
<g>
</g>
<g>
</g>
<g>
</g>
<g>
</g>
<g>
</g>
<g>
</g>
<g>
</g>
<g>
</g>
<g>
</g>
<g>
</g>
<g>
</g>
<g>
</g>
<g>
</g>
<g>
</g>
<g>
</g>
</svg>
